# xmcd
# 
# Track frame offsets:
#     150
#     28709
#     53965
#     77372
# 
# Disc length: 1384
# 
# Revision: 2
# Processed by: cddbd v1.5.2PL0 Copyright (c) Steve Scherf et al.
# Submitted via: BonkEnc v1.0
# 
DISCID=25056604
DTITLE=ROSSO - バニラ
DYEAR=2005
DGENRE=Rock
TTITLE0=バニラ
TTITLE1=ブランコ
TTITLE2=シリウス
TTITLE3=野生にかえったラム(Instrumental)
EXTD=YEAR: 2005
EXTT0=
EXTT1=
EXTT2=
EXTT3=
PLAYORDER=
